<svg width="200" height="40" viewBox="0 0 200 40" fill="none" xmlns="http://www.w3.org/2000/svg">
    <path
        d="M2 20C2 11.1634 9.16344 4 18 4H40C48.8366 4 56 11.1634 56 20V36H18C9.16344 36 2 28.8366 2 20Z"
        fill="#4F52E3"
    />

    <path
        d="M40 10H18C12.4772 10 8 14.4772 8 20C8 25.5228 12.4772 30 18 30H40C45.5228 30 50 25.5228 50 20C50 14.4772 45.5228 10 40 10Z"
        fill="#A5B4FC"
    />

    <circle cx="18" cy="20" r="5" fill="#000"/>
    <circle cx="16.5" cy="18.5" r="1" fill="#FFF"/>
    <circle cx="40" cy="20" r="5" fill="#000"/>
    <circle cx="38.5" cy="18.5" r="1" fill="#FFF"/>

    <path
        d="M72 32V8H78L85 22L92 8H98V32H92V18L85 30L78 18V32H72Z
        M102 20C102 13.3726 107.373 8 114 8C120.627 8 126 13.3726 126 20C126 26.6274 120.627 32 114 32C107.373 32 102 26.6274 102 20Z
        M114 26C118.418 26 122 22.4183 122 18C122 13.5817 118.418 10 114 10C109.582 10 106 13.5817 106 18C106 22.4183 109.582 26 114 26Z
        M132 32V14H126V8H144V14H138V32H132Z
        M150 30C150 28.3431 151.343 27 153 27C154.657 27 156 28.3431 156 30C156 31.6569 154.657 33 153 33C151.343 33 150 31.6569 150 30Z"
        fill="white"
    />

    <path
        d="M160 32L168 8H173L181 32H176L170.5 14L165 32H160ZM165 26V22H176V26H165ZM185 32V8H190V32H185Z"
        fill="url(#aiGradient)"
    />

    <defs>
        <linearGradient id="aiGradient" x1="170" y1="8" x2="170" y2="32" gradientUnits="userSpaceOnUse">
        <stop stop-color="#A5B4FC"/>
        <stop offset="1" stop-color="#4F52E3"/>
        </linearGradient>
    </defs>
</svg>
